<svg width="144" height="17" viewBox="0 0 144 17" fill="none" xmlns="http://www.w3.org/2000/svg">
<g clip-path="url(#clip0_9260_386)">
<path d="M16 8.52246C16 4.10418 12.4183 0.522461 8 0.522461C3.58172 0.522461 0 4.10418 0 8.52246C0 12.5154 2.92547 15.8251 6.75 16.4253V10.835H4.71875V8.52246H6.75V6.75996C6.75 4.75496 7.94438 3.64746 9.77172 3.64746C10.6467 3.64746 11.5625 3.80371 11.5625 3.80371V5.77246H10.5538C9.56 5.77246 9.25 6.38918 9.25 7.02246V8.52246H11.4688L11.1141 10.835H9.25V16.4253C13.0745 15.8251 16 12.5154 16 8.52246Z" fill="#232536"/>
</g>
<g clip-path="url(#clip1_9260_386)">
<path d="M47.7001 15.0225C53.7363 15.0225 57.0388 10.0203 57.0388 5.68376C57.0388 5.54314 57.0357 5.39939 57.0294 5.25876C57.6719 4.79416 58.2263 4.21869 58.6666 3.55939C58.0683 3.82559 57.4331 3.99944 56.7826 4.07501C57.4675 3.66446 57.9803 3.0195 58.226 2.2597C57.5817 2.64156 56.877 2.91093 56.1423 3.05626C55.6472 2.53023 54.9926 2.18193 54.2797 2.06522C53.5669 1.94851 52.8354 2.06989 52.1985 2.41059C51.5615 2.75128 51.0545 3.29233 50.7559 3.95006C50.4572 4.6078 50.3836 5.3456 50.5463 6.04939C49.2416 5.98392 47.9653 5.64499 46.7999 5.05459C45.6346 4.46418 44.6064 3.63548 43.7819 2.6222C43.3629 3.34468 43.2347 4.19962 43.4233 5.01325C43.612 5.82688 44.1033 6.53815 44.7976 7.00251C44.2764 6.98597 43.7666 6.84564 43.3104 6.59314V6.63376C43.3099 7.39196 43.572 8.12691 44.0522 8.7137C44.5323 9.30049 45.2008 9.7029 45.9441 9.85251C45.4613 9.98461 44.9546 10.0039 44.4632 9.90876C44.6729 10.5608 45.081 11.1311 45.6305 11.5401C46.1799 11.949 46.8434 12.1763 47.5282 12.19C46.3656 13.1033 44.9294 13.5986 43.451 13.5963C43.1888 13.5959 42.9269 13.5798 42.6666 13.5481C44.1685 14.5117 45.9156 15.0234 47.7001 15.0225Z" fill="#232536"/>
</g>
<g clip-path="url(#clip2_9260_386)">
<path d="M93.3334 1.96309C95.4709 1.96309 95.724 1.97246 96.5646 2.00996C97.3459 2.04434 97.7677 2.17559 98.049 2.28496C98.4209 2.42871 98.6896 2.60371 98.9677 2.88184C99.249 3.16309 99.4209 3.42871 99.5646 3.80059C99.674 4.08184 99.8053 4.50684 99.8396 5.28496C99.8771 6.12871 99.8865 6.38184 99.8865 8.51621C99.8865 10.6537 99.8771 10.9068 99.8396 11.7475C99.8053 12.5287 99.674 12.9506 99.5646 13.2318C99.4209 13.6037 99.2459 13.8725 98.9677 14.1506C98.6865 14.4318 98.4209 14.6037 98.049 14.7475C97.7677 14.8568 97.3428 14.9881 96.5646 15.0225C95.7209 15.06 95.4678 15.0693 93.3334 15.0693C91.1959 15.0693 90.9427 15.06 90.1021 15.0225C89.3209 14.9881 88.899 14.8568 88.6177 14.7475C88.2459 14.6037 87.9771 14.4287 87.699 14.1506C87.4177 13.8693 87.2459 13.6037 87.1021 13.2318C86.9927 12.9506 86.8615 12.5256 86.8271 11.7475C86.7896 10.9037 86.7802 10.6506 86.7802 8.51621C86.7802 6.37871 86.7896 6.12559 86.8271 5.28496C86.8615 4.50371 86.9927 4.08184 87.1021 3.80059C87.2459 3.42871 87.4209 3.15996 87.699 2.88184C87.9802 2.60059 88.2459 2.42871 88.6177 2.28496C88.899 2.17559 89.324 2.04434 90.1021 2.00996C90.9427 1.97246 91.1959 1.96309 93.3334 1.96309ZM93.3334 0.522461C91.1615 0.522461 90.8896 0.531836 90.0365 0.569336C89.1865 0.606836 88.6021 0.744336 88.0959 0.941211C87.5677 1.14746 87.1209 1.41934 86.6771 1.86621C86.2302 2.30996 85.9584 2.75684 85.7521 3.28184C85.5552 3.79121 85.4177 4.37246 85.3802 5.22246C85.3427 6.07871 85.3334 6.35059 85.3334 8.52246C85.3334 10.6943 85.3427 10.9662 85.3802 11.8193C85.4177 12.6693 85.5552 13.2537 85.7521 13.76C85.9584 14.2881 86.2302 14.735 86.6771 15.1787C87.1209 15.6225 87.5677 15.8975 88.0927 16.1006C88.6021 16.2975 89.1834 16.435 90.0334 16.4725C90.8865 16.51 91.1584 16.5193 93.3302 16.5193C95.5021 16.5193 95.774 16.51 96.6271 16.4725C97.4771 16.435 98.0615 16.2975 98.5678 16.1006C99.0928 15.8975 99.5396 15.6225 99.9834 15.1787C100.427 14.735 100.702 14.2881 100.905 13.7631C101.102 13.2537 101.24 12.6725 101.277 11.8225C101.315 10.9693 101.324 10.6975 101.324 8.52559C101.324 6.35371 101.315 6.08184 101.277 5.22871C101.24 4.37871 101.102 3.79434 100.905 3.28809C100.708 2.75684 100.437 2.30996 99.9896 1.86621C99.5459 1.42246 99.099 1.14746 98.574 0.944336C98.0646 0.747461 97.4834 0.609961 96.6334 0.572461C95.7771 0.531836 95.5052 0.522461 93.3334 0.522461Z" fill="#232536"/>
<path d="M93.3334 4.41309C91.0646 4.41309 89.224 6.25371 89.224 8.52246C89.224 10.7912 91.0646 12.6318 93.3334 12.6318C95.6021 12.6318 97.4427 10.7912 97.4427 8.52246C97.4427 6.25371 95.6021 4.41309 93.3334 4.41309ZM93.3334 11.1881C91.8615 11.1881 90.6677 9.99434 90.6677 8.52246C90.6677 7.05059 91.8615 5.85684 93.3334 5.85684C94.8052 5.85684 95.999 7.05059 95.999 8.52246C95.999 9.99434 94.8052 11.1881 93.3334 11.1881Z" fill="#232536"/>
<path d="M98.5646 4.25057C98.5646 4.78183 98.1334 5.20995 97.6052 5.20995C97.074 5.20995 96.6459 4.7787 96.6459 4.25057C96.6459 3.71932 97.0771 3.2912 97.6052 3.2912C98.1334 3.2912 98.5646 3.72245 98.5646 4.25057Z" fill="#232536"/>
</g>
<g clip-path="url(#clip3_9260_386)">
<path d="M142.816 0.522461H129.181C128.528 0.522461 128 1.03809 128 1.67559V15.3662C128 16.0037 128.528 16.5225 129.181 16.5225H142.816C143.469 16.5225 144 16.0037 144 15.3693V1.67559C144 1.03809 143.469 0.522461 142.816 0.522461ZM132.747 14.1568H130.372V6.51934H132.747V14.1568ZM131.559 5.47871C130.797 5.47871 130.181 4.86309 130.181 4.10371C130.181 3.34434 130.797 2.72871 131.559 2.72871C132.319 2.72871 132.934 3.34434 132.934 4.10371C132.934 4.85996 132.319 5.47871 131.559 5.47871ZM141.634 14.1568H139.262V10.4443C139.262 9.55996 139.247 8.41934 138.028 8.41934C136.794 8.41934 136.606 9.38496 136.606 10.3818V14.1568H134.238V6.51934H136.512V7.56309H136.544C136.859 6.96309 137.634 6.32871 138.788 6.32871C141.191 6.32871 141.634 7.90996 141.634 9.96621V14.1568Z" fill="#232536"/>
</g>
<defs>
<clipPath id="clip0_9260_386">
<rect width="16" height="16" fill="white" transform="translate(0 0.522461)"/>
</clipPath>
<clipPath id="clip1_9260_386">
<rect width="16" height="16" fill="white" transform="translate(42.6666 0.522461)"/>
</clipPath>
<clipPath id="clip2_9260_386">
<rect width="16" height="16" fill="white" transform="translate(85.3334 0.522461)"/>
</clipPath>
<clipPath id="clip3_9260_386">
<rect width="16" height="16" fill="white" transform="translate(128 0.522461)"/>
</clipPath>
</defs>
</svg>
